<svg width="48" height="48" viewBox="0 0 48 48" fill="none" xmlns="http://www.w3.org/2000/svg">
<rect width="48" height="48" rx="13" fill="#5865F2"/>
<path d="M32.9996 15.5697C31.3061 14.7773 29.4952 14.2014 27.602 13.8735C27.3694 14.2939 27.0978 14.8593 26.9105 15.3091C24.898 15.0064 22.904 15.0064 20.9285 15.3091C20.7412 14.8593 20.4634 14.2939 20.2288 13.8735C18.3335 14.2014 16.5206 14.7794 14.827 15.5739C11.411 20.7359 10.485 25.7697 10.948 30.732C13.2137 32.424 15.4094 33.4517 17.568 34.1243C18.101 33.3908 18.5764 32.611 18.9859 31.7892C18.206 31.4929 17.459 31.1271 16.7531 30.7026C16.9404 30.5639 17.1235 30.4188 17.3005 30.2696C21.6055 32.2831 26.2829 32.2831 30.5364 30.2696C30.7155 30.4188 30.8986 30.5639 31.0838 30.7026C30.3759 31.1292 29.6269 31.495 28.847 31.7913C29.2565 32.611 29.7298 33.3929 30.2648 34.1264C32.4255 33.4538 34.6233 32.4261 36.8889 30.732C37.4322 24.9794 35.9609 19.9919 32.9996 15.5697ZM19.5724 27.6802C18.28 27.6802 17.2203 26.4738 17.2203 25.0046C17.2203 23.5355 18.2574 22.3269 19.5724 22.3269C20.8873 22.3269 21.9471 23.5334 21.9244 25.0046C21.9265 26.4738 20.8873 27.6802 19.5724 27.6802ZM28.2646 27.6802C26.9723 27.6802 25.9125 26.4738 25.9125 25.0046C25.9125 23.5355 26.9496 22.3269 28.2646 22.3269C29.5795 22.3269 30.6393 23.5334 30.6167 25.0046C30.6167 26.4738 29.5795 27.6802 28.2646 27.6802Z" fill="white"/>
</svg>
